{"glyphs":{"0":{"ha":486,"x_min":0,"x_max":0,"o":"m 243 625 b 69 451 147 625 69 547 b 243 69 69 286 243 69 b 417 451 243 69 417 286 b 243 625 417 547 339 625 z m 243 356 b 149 449 190 356 149 397 b 243 543 149 501 190 543 b 336 449 294 543 336 501 b 243 356 336 397 294 356 z "},"1":{"ha":833,"x_min":0,"x_max":0,"o":"m 754 519 l 592 622 b 568 622 585 626 575 626 l 417 528 l 267 622 b 243 622 260 626 250 626 l 81 519 b 69 500 74 515 69 508 l 69 93 b 82 72 69 85 75 76 b 104 72 89 68 97 68 l 256 167 l 406 72 b 429 72 413 68 422 68 l 579 167 l 731 72 b 742 69 733 71 738 69 b 753 72 746 69 750 71 b 764 93 760 76 764 85 l 764 500 b 754 519 764 508 760 515 z m 232 208 l 115 135 l 115 486 l 232 560 l 232 208 z m 394 135 l 278 208 l 278 560 l 394 486 l 394 135 z m 557 208 l 440 135 l 440 486 l 557 560 l 557 208 z m 719 135 l 603 208 l 603 560 l 719 486 l 719 135 z "},"2":{"ha":808,"x_min":0,"x_max":0,"o":"m 399 681 b 71 343 215 678 68 526 b 408 14 72 158 224 11 b 738 351 592 17 739 168 b 399 681 735 536 583 683 z m 407 83 b 140 343 261 82 143 199 b 400 610 139 489 254 608 b 667 350 546 613 665 496 b 407 83 668 206 553 86 z m 246 190 b 472 281 246 190 404 213 b 561 507 540 347 561 507 b 335 417 561 507 403 485 b 246 190 268 350 246 190 z m 369 383 b 499 444 397 411 453 432 b 438 314 486 397 467 343 b 369 314 419 296 389 296 b 369 383 350 333 350 364 z "},"3":{"ha":736,"x_min":0,"x_max":0,"o":"m 657 638 b 551 607 638 658 618 639 b 69 350 376 522 69 350 l 332 313 l 371 49 b 626 532 371 49 543 356 b 657 638 658 597 678 617 z m 594 569 l 403 214 l 383 375 l 594 569 z "},"4":{"ha":736,"x_min":0,"x_max":0,"o":"m 368 646 b 69 347 203 646 69 513 b 368 49 69 182 203 49 b 667 347 532 49 667 182 b 368 646 667 513 532 646 z m 392 106 l 392 239 l 343 239 l 343 106 b 125 322 228 117 138 208 l 260 322 l 260 371 l 125 371 b 343 589 138 486 228 578 l 343 454 l 392 454 l 392 589 b 610 371 507 578 597 486 l 475 371 l 475 322 l 610 322 b 392 106 597 208 507 117 z "},"5":{"ha":694,"x_min":0,"x_max":0,"o":"m 521 243 b 457 221 496 243 475 235 l 275 331 b 278 347 276 336 278 342 b 275 364 278 353 276 358 l 457 472 b 521 451 475 460 496 451 b 625 556 578 451 625 499 b 521 660 625 613 578 660 b 417 556 463 660 417 613 b 418 539 417 550 417 544 l 236 429 b 174 451 219 443 197 451 b 69 347 115 451 69 404 b 174 243 69 290 115 243 b 236 264 197 243 219 251 l 418 156 b 417 139 417 150 417 144 b 521 35 417 82 463 35 b 625 139 578 35 625 82 b 521 243 625 196 578 243 z "},"6":{"ha":739,"x_min":0,"x_max":0,"o":"m 619 550 b 408 550 561 603 467 603 l 369 514 l 329 550 b 119 550 272 603 178 603 b 119 333 54 490 54 393 l 369 104 l 619 333 b 619 550 685 393 685 490 z "},"7":{"ha":750,"x_min":0,"x_max":0,"o":"m 375 653 l 292 419 l 69 419 l 250 282 l 186 42 l 375 186 l 563 42 l 499 282 l 681 419 l 457 419 l 375 653 z "},"8":{"ha":764,"x_min":0,"x_max":0,"o":"m 69 368 l 69 154 b 100 121 69 135 79 121 b 208 121 100 121 169 121 l 208 399 l 99 399 b 69 368 76 399 69 382 z m 614 440 b 486 438 574 440 486 438 l 493 546 b 443 642 493 613 479 642 b 403 540 399 642 417 588 b 254 399 389 494 310 399 l 243 399 l 243 121 b 396 51 322 121 324 51 b 542 51 442 51 542 51 b 694 172 614 51 694 117 l 694 339 b 614 440 694 403 668 440 z "},"9":{"ha":833,"x_min":0,"x_max":0,"o":"m 271 271 l 271 486 l 139 486 b 69 417 101 486 69 454 l 69 208 b 139 139 69 169 101 139 l 174 139 l 174 35 l 278 139 l 451 139 b 521 208 490 139 521 169 l 521 271 b 514 271 519 271 517 271 l 271 271 z m 694 660 l 382 660 b 313 590 344 660 313 628 l 313 313 l 556 313 l 660 208 l 660 313 l 694 313 b 764 382 733 313 764 343 l 764 590 b 694 660 764 628 733 660 z "},"!":{"ha":660,"x_min":0,"x_max":0,"o":"m 369 307 b 235 229 318 256 258 206 b 106 233 201 264 181 293 b 121 101 32 174 89 133 b 439 238 160 63 300 99 b 576 556 578 376 614 518 b 443 571 543 589 504 646 b 447 442 383 496 414 475 b 369 307 471 418 421 358 z "}," ":{"ha":694,"x_min":0,"x_max":0,"o":""},"\"":{"ha":542,"x_min":0,"x_max":0,"o":"m 403 688 l 139 688 b 69 618 101 688 69 656 l 69 76 b 139 7 69 38 101 7 l 403 7 b 472 76 442 7 472 38 l 472 618 b 403 688 472 656 442 688 z m 271 35 b 222 69 244 35 222 50 b 271 104 222 89 244 104 b 319 69 299 104 319 89 b 271 35 319 50 299 35 z m 417 139 l 125 139 l 125 597 l 417 597 l 417 139 z "},"#":{"ha":529,"x_min":0,"x_max":0,"o":"m 453 194 l 361 456 b 185 547 336 528 258 567 l 115 681 b 83 692 110 693 94 697 b 74 658 71 685 67 669 l 140 528 b 76 363 86 493 58 425 l 151 94 b 344 8 172 19 258 -18 b 453 194 429 38 478 121 z m 226 385 b 165 417 201 376 174 390 b 197 478 158 442 172 469 b 257 446 222 486 250 472 b 226 385 265 421 251 393 z "},"$":{"ha":833,"x_min":0,"x_max":0,"o":"m 364 660 l 333 660 b 319 646 325 660 319 653 l 319 514 l 196 514 b 176 510 190 514 183 513 b 158 501 169 508 163 506 l 76 446 b 69 433 71 442 69 438 b 76 422 69 429 71 425 l 158 365 b 176 357 163 363 169 360 b 196 354 183 356 190 354 l 319 354 l 319 49 b 333 35 319 40 325 35 l 364 35 b 378 49 372 35 378 40 l 378 646 b 364 660 378 653 372 660 z m 756 515 l 674 571 b 656 579 669 575 663 578 b 636 583 649 582 642 583 l 399 583 l 426 424 l 636 424 b 656 426 642 424 649 425 b 674 435 663 429 669 432 l 756 492 b 764 503 761 494 764 499 b 756 515 764 507 761 511 z "},"%":{"ha":765,"x_min":0,"x_max":0,"o":"m 90 511 b 351 371 108 501 343 375 b 383 364 360 367 371 364 b 414 371 394 364 406 367 b 675 511 422 375 657 501 b 676 549 692 519 707 549 l 89 549 b 90 511 58 549 74 519 z m 682 442 b 414 301 663 431 426 307 b 383 294 403 296 394 294 b 351 301 371 294 363 296 b 83 442 339 307 103 431 b 71 433 69 449 71 440 b 71 179 71 428 71 179 b 104 146 71 164 89 146 l 661 146 b 696 179 676 146 696 164 b 696 433 696 179 696 428 b 682 442 696 440 696 449 z "},"&":{"ha":682,"x_min":0,"x_max":0,"o":"m 568 575 b 481 618 518 625 481 618 l 306 442 l 104 242 l 69 76 l 235 111 l 436 313 l 611 488 b 568 575 611 488 618 525 z m 225 132 l 169 119 b 144 151 164 129 157 139 b 113 175 133 164 122 169 l 125 232 l 140 249 b 207 213 140 249 172 247 b 242 147 240 178 242 147 l 225 132 z "},"'":{"ha":790,"x_min":0,"x_max":0,"o":"m 240 6 b 368 63 283 6 328 22 l 713 407 b 713 442 722 417 722 432 b 678 442 703 451 688 451 l 335 97 b 156 90 271 33 196 49 b 163 269 114 132 99 206 b 507 614 211 318 408 515 b 581 638 529 636 556 644 b 633 585 607 631 628 610 b 610 510 640 560 632 533 l 281 181 b 249 163 269 171 258 164 b 232 168 242 163 236 164 b 246 215 224 176 226 196 l 476 446 b 476 481 486 456 486 471 b 443 481 468 490 453 490 l 211 250 b 199 133 169 207 172 158 b 254 115 213 119 232 113 b 315 147 275 117 296 128 l 644 476 b 681 597 679 511 692 556 b 594 685 669 639 636 674 b 472 647 551 696 507 682 b 128 304 374 550 178 353 b 121 56 44 219 61 115 b 240 6 151 25 194 6 z "},"(":{"ha":764,"x_min":0,"x_max":0,"o":"m 694 111 b 319 449 694 111 625 449 l 319 583 l 69 358 l 319 126 l 319 278 b 694 111 485 278 607 264 z "},")":{"ha":833,"x_min":0,"x_max":0,"o":"m 321 490 l 321 583 l 69 360 l 321 126 l 321 224 l 174 360 l 321 490 z m 494 449 l 494 583 l 243 360 l 494 126 l 494 278 b 764 111 608 278 678 264 b 494 449 764 111 751 449 z "},"*":{"ha":764,"x_min":0,"x_max":0,"o":"m 444 278 l 444 126 l 694 360 l 444 583 l 444 449 b 69 111 139 449 69 111 b 444 278 157 264 279 278 z "},"+":{"ha":792,"x_min":0,"x_max":0,"o":"m 581 193 b 468 307 496 224 468 250 b 506 392 468 340 494 329 b 538 450 511 417 533 392 b 525 479 538 474 525 479 b 535 540 525 479 532 514 b 396 660 538 574 515 660 b 258 540 278 660 256 574 b 268 479 261 514 268 479 b 254 450 268 479 254 474 b 288 392 260 392 282 417 b 325 307 299 329 325 340 b 211 193 325 250 297 224 b 69 108 126 161 69 129 b 69 35 69 86 69 35 l 396 35 l 722 35 b 722 108 722 35 722 86 b 581 193 722 129 667 161 z "},",":{"ha":833,"x_min":0,"x_max":0,"o":"m 764 51 b 756 192 764 51 763 179 b 664 246 743 211 715 225 b 596 322 613 267 596 285 b 618 379 596 344 611 338 b 638 418 621 396 635 379 b 631 438 638 433 631 438 b 636 478 631 438 635 460 b 553 557 638 500 624 557 b 469 478 481 557 468 500 b 475 438 471 460 475 438 b 467 418 475 438 467 433 b 486 379 469 379 483 396 b 510 322 493 338 510 344 b 481 265 510 296 501 281 b 608 151 593 211 608 200 l 608 51 l 764 51 z m 425 228 b 335 328 357 256 335 278 b 365 404 335 358 356 349 b 390 456 368 426 388 404 b 381 482 390 476 381 482 b 388 536 381 482 386 513 b 276 642 390 567 372 642 b 167 536 182 642 164 567 b 174 482 168 513 174 482 b 163 456 174 482 163 476 b 189 404 167 404 185 426 b 219 328 199 349 219 358 b 129 228 219 278 197 256 b 69 174 108 219 69 206 l 69 51 l 553 51 b 553 143 553 51 553 124 b 425 228 553 172 494 200 z "},"-":{"ha":833,"x_min":0,"x_max":0,"o":"m 499 193 b 385 307 413 224 385 250 b 422 392 385 340 411 329 b 456 450 428 417 450 392 b 442 479 456 474 442 479 b 451 540 442 479 449 514 b 313 660 454 574 432 660 b 172 540 192 660 169 574 b 182 479 175 514 182 479 b 168 450 182 479 168 474 b 201 392 174 392 196 417 b 239 307 213 329 239 340 b 125 193 239 250 211 224 b 69 174 115 189 90 183 l 69 35 l 625 35 b 625 108 625 35 625 86 b 499 193 625 129 585 161 z m 660 382 l 660 486 l 590 486 l 590 382 l 486 382 l 486 313 l 590 313 l 590 208 l 660 208 l 660 313 l 764 313 l 764 382 l 660 382 z "},".":{"ha":833,"x_min":0,"x_max":0,"o":"m 694 625 l 139 625 b 69 556 100 625 69 593 l 69 139 b 139 69 69 100 100 69 l 694 69 b 764 139 732 69 764 100 l 764 556 b 694 625 764 593 732 625 z m 694 139 l 139 139 l 139 556 l 694 556 l 694 139 z m 382 274 l 208 274 l 208 211 l 382 211 l 382 274 z m 382 378 l 208 378 l 208 315 l 382 315 l 382 378 z m 382 482 l 208 482 l 208 419 l 382 419 l 382 482 z m 621 260 b 563 306 621 260 563 276 b 600 406 563 335 600 347 b 538 482 600 454 586 482 b 475 406 490 482 475 454 b 514 306 475 347 514 335 b 454 260 514 276 454 260 b 451 211 451 260 451 211 l 625 211 b 621 260 625 211 625 260 z "},"/":{"ha":833,"x_min":0,"x_max":0,"o":"m 590 146 l 139 146 l 139 458 l 228 458 b 304 528 228 458 253 489 l 104 528 b 69 493 85 528 69 513 l 69 111 b 104 76 69 92 85 76 l 625 76 b 660 111 643 76 660 92 l 660 242 l 590 183 l 590 146 z m 533 388 l 533 264 l 764 444 l 533 618 l 533 510 b 253 232 253 510 253 232 b 533 388 332 363 381 388 z "},":":{"ha":694,"x_min":0,"x_max":0,"o":"m 556 590 l 139 590 b 69 521 100 590 69 558 l 69 278 b 139 208 69 239 100 208 l 278 208 l 417 104 l 417 208 l 556 208 b 625 278 593 208 625 239 l 625 521 b 556 590 625 558 593 590 z "},";":{"ha":667,"x_min":0,"x_max":0,"o":"m 169 576 b 69 472 114 576 69 529 b 169 368 69 415 114 368 b 69 167 271 368 204 167 l 69 118 b 169 576 310 118 404 576 z m 461 576 b 361 472 406 576 361 529 b 461 368 361 415 406 368 b 361 167 563 368 496 167 l 361 118 b 461 576 601 118 696 576 z "},"<":{"ha":819,"x_min":0,"x_max":0,"o":"m 114 468 l 704 468 b 711 493 724 468 721 490 b 572 538 701 497 592 538 l 542 538 l 542 642 l 278 642 l 278 538 l 246 538 b 107 493 226 538 117 497 b 114 468 97 490 94 468 z m 711 431 l 107 431 b 69 389 88 431 69 408 l 69 267 b 107 225 69 249 88 225 l 176 225 l 146 51 l 674 51 l 643 225 l 711 225 b 750 267 731 225 750 249 l 750 389 b 711 431 750 408 731 431 z m 215 121 l 264 347 l 556 347 l 604 121 l 215 121 z "},"=":{"ha":696,"x_min":0,"x_max":0,"o":"m 510 399 b 260 631 431 569 389 633 b 190 651 214 631 225 664 b 149 590 154 639 185 619 b 104 249 49 507 57 431 b 83 93 124 171 57 168 b 396 72 103 39 246 17 b 624 293 547 128 643 239 b 510 399 597 368 543 326 z m 381 118 b 131 111 246 68 135 97 b 328 265 122 133 174 208 b 576 276 482 322 568 301 b 381 118 582 261 515 168 z m 338 239 b 186 157 267 214 217 183 b 292 147 208 136 250 131 b 364 247 344 167 376 211 b 364 249 364 249 364 249 b 338 239 356 246 346 243 z "},">":{"ha":694,"x_min":0,"x_max":0,"o":"m 274 185 l 246 156 b 157 156 221 132 182 132 b 139 200 146 168 139 183 b 157 243 139 217 146 232 l 261 346 b 351 369 282 367 322 399 b 400 369 365 356 388 356 b 400 418 414 383 414 404 b 213 394 350 468 276 458 l 108 292 b 69 200 83 267 69 235 b 108 107 69 165 83 132 b 201 69 135 82 168 69 b 294 107 235 69 268 82 l 322 135 b 322 183 336 149 336 171 b 274 185 308 197 288 197 z m 588 583 b 408 590 533 636 458 639 l 374 556 b 374 507 360 542 360 519 b 422 506 388 493 408 493 l 457 540 b 539 535 483 567 517 556 b 557 490 550 522 557 507 b 539 447 557 474 550 458 l 428 338 b 344 321 378 288 354 311 b 296 321 331 335 308 335 b 296 272 282 307 282 286 b 372 238 318 249 344 238 b 476 289 407 238 443 256 l 588 399 b 625 490 613 424 625 456 b 588 583 625 525 613 558 z "},"?":{"ha":764,"x_min":0,"x_max":0,"o":"m 676 532 b 133 575 279 374 440 800 l 69 553 l 196 51 l 267 51 l 204 297 b 692 518 478 526 367 47 b 676 532 699 529 689 538 z "},"@":{"ha":722,"x_min":0,"x_max":0,"o":"m 596 347 b 653 432 596 383 618 413 b 628 490 646 453 638 472 b 533 521 590 481 560 494 b 510 615 508 546 500 576 b 453 639 492 625 472 633 b 361 583 432 606 397 583 b 268 639 324 583 289 606 b 211 615 249 633 229 625 b 188 521 221 576 213 546 b 93 490 161 494 131 481 b 69 432 83 472 75 453 b 125 347 103 413 125 383 b 69 256 125 311 103 275 b 93 197 75 235 83 215 b 188 174 131 207 161 200 b 211 79 213 147 221 117 b 268 56 229 69 249 61 b 361 111 289 89 324 111 b 453 56 397 111 432 89 b 510 79 472 61 492 69 b 533 174 500 117 508 147 b 628 204 560 200 590 214 b 653 263 638 222 646 242 b 596 347 618 282 596 311 z m 361 221 b 233 347 290 221 233 276 b 361 474 233 417 290 474 b 488 347 431 474 488 417 b 361 221 488 276 431 221 z "},"A":{"ha":765,"x_min":0,"x_max":0,"o":"m 629 594 b 475 650 572 653 499 674 l 382 557 b 361 447 368 543 356 494 l 78 164 b 108 72 61 147 74 106 b 199 42 142 39 182 25 l 482 325 b 592 346 531 319 578 332 l 686 440 b 629 594 710 463 688 536 z m 318 311 b 328 367 306 324 310 349 b 383 376 346 385 371 389 b 375 321 397 364 393 339 b 318 311 356 303 331 299 z m 553 517 b 500 625 507 563 496 621 b 607 571 504 629 561 615 b 661 465 651 526 665 468 b 553 517 657 461 597 472 z "},"B":{"ha":764,"x_min":0,"x_max":0,"o":"m 424 196 b 524 315 424 246 461 274 b 694 578 600 365 694 429 b 671 603 694 592 683 603 l 551 603 b 382 667 535 633 485 667 b 214 603 281 667 231 633 l 94 603 b 69 578 81 603 69 592 b 240 315 69 429 165 365 b 342 196 303 274 342 246 l 342 150 b 228 90 276 143 228 119 b 382 28 228 56 297 28 b 538 90 468 28 538 56 b 424 150 538 119 489 143 l 424 196 z m 519 371 b 557 554 539 413 556 469 l 644 554 b 519 371 636 460 581 413 z m 382 624 b 514 571 478 624 514 585 b 382 518 514 557 478 518 b 250 571 288 518 250 557 b 382 624 250 585 288 624 z m 119 554 l 207 554 b 244 371 210 469 225 413 b 119 554 185 413 128 460 z "},"C":{"ha":807,"x_min":0,"x_max":0,"o":"m 726 681 b 700 693 722 692 711 697 b 688 667 689 689 683 678 b 607 468 719 574 656 504 l 588 496 b 556 514 581 506 567 513 l 446 513 b 408 501 433 513 417 507 l 85 272 b 76 224 69 261 65 239 l 224 11 b 267 8 235 -4 251 -3 l 590 238 b 614 269 600 244 610 258 l 649 378 b 643 415 651 389 650 406 l 631 433 b 726 681 696 483 764 572 z m 576 356 b 499 369 551 338 517 344 b 513 447 482 394 488 429 b 576 446 532 461 558 460 b 560 438 567 440 561 438 b 550 408 550 432 544 419 b 568 397 553 401 561 397 b 578 399 572 397 575 397 b 599 411 585 403 592 406 b 576 356 601 390 594 368 z "},"D":{"ha":833,"x_min":0,"x_max":0,"o":"m 417 417 b 313 313 360 417 313 369 b 417 208 313 256 360 208 b 521 313 475 208 521 256 b 417 417 521 369 475 417 z m 694 521 l 611 521 b 585 540 600 521 588 529 l 563 606 b 535 625 560 617 547 625 l 299 625 b 272 606 288 625 275 617 l 250 540 b 222 521 247 529 235 521 l 139 521 b 69 451 101 521 69 489 l 69 139 b 139 69 69 100 101 69 l 694 69 b 764 139 733 69 764 100 l 764 451 b 694 521 764 489 733 521 z m 417 139 b 243 313 321 139 243 217 b 417 486 243 408 321 486 b 590 313 513 486 590 408 b 417 139 590 217 513 139 z m 671 403 b 646 426 657 403 646 414 b 671 451 646 440 657 451 b 694 426 685 451 694 440 b 671 403 694 414 685 403 z "},"E":{"ha":710,"x_min":0,"x_max":0,"o":"m 433 268 b 69 218 335 169 186 153 b 121 151 83 194 100 172 b 550 151 239 33 432 33 b 550 582 669 271 669 463 b 483 632 531 601 508 618 b 433 268 549 517 532 367 z "},"F":{"ha":821,"x_min":0,"x_max":0,"o":"m 665 536 b 293 592 558 607 438 632 b 71 322 182 558 79 432 b 339 83 61 193 163 83 b 603 203 529 83 601 175 b 576 335 604 231 528 282 b 726 353 639 401 693 344 b 665 536 758 361 775 463 z m 444 213 b 392 264 415 213 392 236 b 444 317 392 293 415 317 b 497 264 474 317 497 293 b 444 213 497 236 474 213 z "},"G":{"ha":793,"x_min":0,"x_max":0,"o":"m 233 551 b 114 303 101 475 108 350 b 542 496 285 506 542 496 b 71 122 542 496 178 372 b 122 100 63 101 111 76 b 200 221 154 169 200 221 b 465 225 267 196 383 167 b 721 556 575 301 564 472 b 233 551 757 575 414 657 z "},"H":{"ha":543,"x_min":0,"x_max":0,"o":"m 335 674 l 279 674 l 279 219 b 169 218 249 232 208 232 b 75 78 99 192 57 129 b 236 32 94 26 167 6 b 335 147 296 54 336 101 l 335 518 b 426 346 432 503 439 381 b 444 346 422 333 431 324 b 335 674 550 508 335 581 z "},"I":{"ha":738,"x_min":0,"x_max":0,"o":"m 651 567 b 575 628 640 576 585 618 b 536 639 564 636 547 639 l 201 639 b 164 628 190 639 174 636 b 88 567 153 618 97 576 b 71 525 76 558 68 544 b 138 75 74 507 138 75 b 165 56 142 64 154 56 l 572 56 b 600 75 583 56 596 64 b 667 525 600 75 664 507 b 651 567 669 544 661 558 z m 369 265 b 226 457 256 265 232 425 l 290 457 b 369 328 300 410 322 328 b 447 457 415 328 438 410 l 511 457 b 369 265 506 425 482 265 z m 125 521 l 201 600 l 536 600 l 614 521 l 125 521 z "},"J":{"ha":833,"x_min":0,"x_max":0,"o":"m 254 21 l 324 21 l 479 299 l 660 299 b 764 347 660 299 764 299 b 660 396 764 396 660 396 l 479 396 l 324 674 l 254 674 l 340 396 l 217 396 l 139 465 l 69 465 l 125 347 l 69 229 l 139 229 l 217 299 l 340 299 l 254 21 z "},"K":{"ha":781,"x_min":0,"x_max":0,"o":"m 385 667 b 71 343 208 664 68 519 b 394 28 72 167 218 25 b 710 351 571 31 711 175 b 385 667 707 528 561 669 z m 386 625 b 518 593 433 625 478 614 l 475 522 b 390 542 449 535 421 542 b 304 522 360 542 331 535 l 261 593 b 386 625 299 613 342 624 z m 215 263 l 143 219 b 113 343 124 256 113 299 b 143 475 111 392 122 436 l 215 432 b 196 347 203 407 196 378 b 215 263 196 317 203 288 z m 393 69 b 261 100 346 68 301 81 l 304 172 b 390 153 331 160 360 153 b 475 172 421 153 449 160 l 518 101 b 393 69 481 82 439 69 z m 390 194 b 238 347 306 194 238 263 b 390 500 238 432 306 500 b 543 347 474 500 543 432 b 390 194 543 263 474 194 z m 564 263 b 585 347 576 288 585 317 b 564 432 585 378 576 407 l 636 475 b 668 351 656 438 667 396 b 636 219 668 303 657 258 l 564 263 z "},"L":{"ha":778,"x_min":0,"x_max":0,"o":"m 456 667 b 203 435 322 667 214 564 b 69 239 125 404 69 328 b 279 28 69 122 164 28 b 476 163 369 28 446 83 b 708 414 606 174 708 282 b 456 667 708 553 594 667 z m 279 99 b 139 239 203 99 139 161 b 208 360 139 290 167 335 b 401 168 229 264 306 189 b 279 99 376 126 332 99 z m 282 379 b 421 242 357 378 419 317 b 282 379 351 256 296 310 z m 490 242 b 282 449 489 356 396 449 b 456 590 299 529 369 590 b 632 414 553 590 632 511 b 490 242 632 329 571 257 z m 142 517 b 213 589 181 517 213 549 b 142 661 213 628 181 661 b 69 589 101 661 69 628 b 142 517 69 549 101 517 z m 142 628 b 181 589 163 628 181 611 b 142 549 181 567 163 549 b 101 589 119 549 101 567 b 142 628 101 611 119 628 z "},"M":{"ha":833,"x_min":0,"x_max":0,"o":"m 417 542 b 69 347 189 542 69 374 b 417 153 69 321 189 153 b 764 347 644 153 764 321 b 417 542 764 374 644 542 z m 417 197 b 261 347 331 197 261 264 b 417 497 261 429 331 497 b 571 347 501 497 571 429 b 417 197 571 264 501 197 z m 417 347 b 417 422 401 363 439 422 b 339 347 374 422 339 389 b 417 272 339 306 374 272 b 493 347 458 272 493 306 b 417 347 493 367 428 333 z "},"N":{"ha":778,"x_min":0,"x_max":0,"o":"m 389 667 b 69 347 213 667 69 524 b 389 28 69 171 213 28 b 708 347 565 28 708 171 b 389 667 708 524 565 667 z m 389 97 b 139 347 250 97 139 210 b 389 597 139 485 250 597 b 639 347 526 597 639 485 b 389 97 639 210 526 97 z m 413 528 l 364 528 l 364 338 l 482 219 l 517 253 l 413 357 l 413 528 z "},"O":{"ha":583,"x_min":0,"x_max":0,"o":"m 500 443 l 479 443 b 465 429 471 443 465 438 l 465 333 b 292 208 465 288 428 208 b 118 333 154 208 118 288 l 118 429 b 104 443 118 438 111 443 l 83 443 b 69 429 75 443 69 438 l 69 333 b 257 161 69 256 126 174 l 257 69 l 167 69 b 153 56 158 69 153 64 l 153 14 b 167 0 153 7 158 0 l 417 0 b 431 14 424 0 431 7 l 431 56 b 417 69 431 64 424 69 l 326 69 l 326 161 b 514 333 457 174 514 256 l 514 429 b 500 443 514 438 507 443 z m 292 278 b 396 333 372 278 396 311 l 396 443 l 188 443 l 188 333 b 292 278 188 311 210 278 z m 396 639 b 292 694 396 661 372 694 b 188 639 210 694 188 661 l 188 492 l 396 492 l 396 639 z "},"P":{"ha":764,"x_min":0,"x_max":0,"o":"m 625 590 l 593 590 l 593 521 l 482 521 l 482 590 l 281 590 l 281 521 l 169 521 l 169 590 l 139 590 b 69 521 100 590 69 558 l 69 104 b 139 35 69 65 100 35 l 625 35 b 694 104 663 35 694 65 l 694 521 b 625 590 694 558 663 590 z m 625 104 l 139 104 l 139 382 l 625 382 l 625 104 z m 250 660 l 201 660 l 201 542 l 250 542 l 250 660 z m 563 660 l 514 660 l 514 542 l 563 542 l 563 660 z "},"Q":{"ha":419,"x_min":0,"x_max":0,"o":"m 99 35 b 349 332 104 31 351 311 b 215 400 344 351 218 392 b 321 660 211 408 326 654 b 71 363 314 665 64 382 b 204 294 76 344 200 304 b 99 35 207 283 92 39 z "},"R":{"ha":528,"x_min":0,"x_max":0,"o":"m 458 535 b 458 617 458 610 458 617 b 264 694 458 644 372 694 b 69 617 157 694 69 644 b 69 535 69 617 69 610 b 204 347 69 461 204 400 b 69 158 204 294 69 233 b 69 78 69 85 69 78 b 264 0 69 50 157 0 b 458 78 372 0 458 50 b 458 158 458 78 458 85 b 324 347 458 233 324 294 b 458 535 324 400 458 461 z m 124 614 b 267 651 147 629 193 651 b 406 614 340 651 406 614 b 417 592 410 611 429 600 b 264 557 388 575 331 557 b 114 594 199 557 143 576 b 124 614 101 601 124 614 z m 282 347 b 353 243 282 306 317 279 b 417 158 379 218 417 182 l 417 113 b 282 200 383 129 282 146 b 247 200 282 226 247 226 b 113 113 247 146 146 129 l 113 158 b 175 243 113 182 149 218 b 247 347 213 279 247 306 b 175 451 247 389 213 415 b 113 535 149 476 113 513 l 111 569 b 264 533 146 551 203 533 b 418 569 326 533 382 551 l 417 535 b 353 451 417 513 379 476 b 282 347 317 415 282 389 z "},"S":{"ha":667,"x_min":0,"x_max":0,"o":"m 69 611 l 69 529 b 514 83 315 529 514 329 l 597 83 b 69 611 597 375 360 611 z m 69 446 l 69 364 b 350 83 224 364 350 239 l 432 83 b 69 446 432 283 269 446 z m 147 240 b 69 163 104 240 69 206 b 147 83 69 118 104 83 b 226 163 192 83 226 118 b 147 240 226 206 192 240 z "},"T":{"ha":819,"x_min":0,"x_max":0,"o":"m 410 208 b 342 139 372 208 342 178 b 410 69 342 100 372 69 b 479 139 449 69 479 100 b 410 208 479 178 449 208 z m 264 286 l 313 238 b 507 238 367 292 454 292 l 556 286 b 264 286 475 368 344 368 z m 167 385 l 215 335 b 604 335 324 443 497 443 l 653 385 b 167 385 519 519 301 519 z m 69 482 l 118 433 b 701 433 279 596 540 596 l 750 482 b 69 482 563 672 258 672 z "},"U":{"ha":625,"x_min":0,"x_max":0,"o":"m 514 433 l 451 433 l 451 482 b 313 642 451 583 404 642 b 174 482 219 642 174 583 l 174 433 l 104 433 b 69 392 85 433 69 411 l 69 121 b 101 76 69 103 83 82 l 143 63 b 211 51 161 57 192 51 l 413 51 b 481 63 432 51 463 57 l 522 76 b 556 121 540 82 556 103 l 556 392 b 514 433 556 411 532 433 z m 243 496 b 313 572 243 547 271 572 b 382 496 354 572 382 547 l 382 433 l 243 433 z "},"V":{"ha":625,"x_min":0,"x_max":0,"o":"m 514 417 l 451 417 l 451 500 b 313 660 451 600 404 660 b 174 500 219 660 174 600 l 174 486 l 243 486 l 243 514 b 313 590 243 564 269 590 b 382 514 354 590 382 564 l 382 417 l 104 417 b 69 375 85 417 69 394 l 69 104 b 101 58 69 85 83 64 l 143 46 b 211 35 161 39 192 35 l 413 35 b 481 46 432 35 463 39 l 522 58 b 556 104 540 64 556 85 l 556 375 b 514 417 556 394 532 417 z "},"W":{"ha":604,"x_min":0,"x_max":0,"o":"m 243 104 b 246 104 244 104 244 104 b 285 126 261 104 276 114 l 526 517 b 511 583 540 539 533 569 b 444 568 489 597 458 590 l 239 238 l 157 346 b 90 356 142 367 111 371 b 81 288 68 339 64 308 l 204 124 b 243 104 214 111 228 104 z "},"X":{"ha":465,"x_min":0,"x_max":0,"o":"m 383 238 l 288 347 l 383 457 b 383 515 400 472 400 499 b 325 515 368 532 342 532 l 233 410 l 140 515 b 82 515 125 532 99 532 b 82 457 65 499 65 472 l 178 347 l 82 238 b 82 179 65 221 65 194 b 140 179 99 163 125 163 l 233 283 l 325 179 b 383 179 342 163 368 163 b 383 238 400 194 400 221 z "},"Y":{"ha":722,"x_min":0,"x_max":0,"o":"m 361 639 b 69 347 200 639 69 508 b 361 56 69 186 200 56 b 653 347 522 56 653 186 b 361 639 653 508 522 639 z m 536 383 l 536 313 l 185 313 l 185 383 l 536 383 z "},"[":{"ha":722,"x_min":0,"x_max":0,"o":"m 361 639 b 69 347 200 639 69 508 b 361 56 69 186 200 56 b 653 347 522 56 653 186 b 361 639 653 508 522 639 z m 421 347 l 526 240 l 467 181 l 361 288 l 254 181 l 194 240 l 300 347 l 194 453 l 254 514 l 361 407 l 467 514 l 526 453 l 421 347 z "},"\\":{"ha":542,"x_min":0,"x_max":0,"o":"m 451 382 l 90 382 b 69 347 71 382 69 367 b 90 313 69 328 71 313 l 451 313 b 472 347 469 313 472 328 b 451 382 472 367 469 382 z "},"]":{"ha":542,"x_min":0,"x_max":0,"o":"m 451 382 l 306 382 l 306 528 b 271 549 306 547 289 549 b 236 528 251 549 236 547 l 236 382 l 90 382 b 69 347 71 382 69 367 b 90 313 69 328 71 313 l 236 313 l 236 167 b 271 146 236 147 251 146 b 306 167 289 146 306 147 l 306 313 l 451 313 b 472 347 469 313 472 328 b 451 382 472 367 469 382 z "},"^":{"ha":778,"x_min":0,"x_max":0,"o":"m 389 667 b 69 347 213 667 69 524 b 389 28 69 171 213 28 b 708 347 565 28 708 171 b 389 667 708 524 565 667 z m 560 519 l 560 519 b 560 519 560 519 560 519 z m 146 347 b 389 590 146 482 254 590 b 542 535 447 590 500 569 l 200 193 b 146 347 165 235 146 289 z m 217 175 l 217 175 b 217 175 217 175 217 175 z m 389 104 b 235 158 331 104 276 125 l 576 501 b 632 347 611 460 632 406 b 389 104 632 213 522 104 z "},"_":{"ha":458,"x_min":0,"x_max":0,"o":"m 313 694 b 221 608 251 694 221 644 b 290 539 219 565 246 539 b 383 626 343 539 383 581 b 313 694 383 663 360 694 z m 169 0 b 389 122 207 0 301 33 l 368 150 b 285 108 332 122 296 108 b 281 153 276 108 272 119 l 329 339 b 306 451 347 407 342 451 b 69 331 261 451 158 407 l 88 300 b 174 339 115 319 163 339 b 174 299 182 339 182 328 l 132 122 b 169 0 106 22 133 0 z "},"`":{"ha":781,"x_min":0,"x_max":0,"o":"m 386 667 b 71 343 210 664 69 519 b 394 28 74 167 218 25 b 710 351 571 31 713 175 b 386 667 708 528 563 669 z m 422 560 b 464 519 454 560 464 542 b 406 468 464 493 443 468 b 361 508 375 468 360 483 b 422 560 361 531 379 560 z m 339 147 b 315 221 317 147 300 161 l 342 325 b 342 349 346 342 346 349 b 289 325 335 349 306 338 l 278 344 b 421 415 332 389 394 415 b 435 349 443 415 446 389 l 406 239 b 408 213 401 219 403 213 b 458 238 415 213 436 221 l 471 221 b 339 147 418 168 361 147 z "},"a":{"ha":542,"x_min":0,"x_max":0,"o":"m 413 617 b 263 660 372 646 322 660 b 147 629 218 660 179 650 b 69 469 99 599 72 544 l 183 469 b 203 533 183 492 190 513 b 268 564 215 553 238 564 b 332 539 299 564 321 556 b 350 483 344 522 350 504 b 331 436 350 467 342 450 b 308 413 325 426 317 419 b 218 340 308 413 246 372 b 200 254 203 322 201 293 b 211 244 200 251 200 244 b 300 244 221 244 290 244 b 311 254 308 244 311 251 b 315 285 311 269 313 276 b 350 326 321 301 335 315 l 381 349 b 443 403 410 371 432 389 b 472 490 460 426 472 456 b 413 617 472 546 451 589 z m 261 176 b 188 107 222 178 189 150 b 257 35 186 64 218 36 b 332 103 299 33 331 60 b 261 176 333 146 303 175 z "},"b":{"ha":781,"x_min":0,"x_max":0,"o":"m 385 667 b 71 343 208 664 68 519 b 394 28 72 167 218 25 b 710 351 571 31 711 175 b 385 667 707 528 561 669 z m 385 153 l 385 153 l 383 153 b 338 200 356 154 336 174 b 383 246 338 226 357 246 l 385 246 b 432 197 414 244 432 225 b 385 153 431 171 411 153 z m 499 379 b 461 346 492 371 478 360 l 442 332 b 421 308 431 324 424 315 b 418 288 419 301 418 300 l 418 285 l 344 285 l 344 292 b 357 344 346 317 346 332 b 413 390 374 365 411 389 b 425 403 418 393 422 399 b 436 431 433 414 436 422 b 426 463 436 442 433 453 b 389 476 419 472 407 476 b 353 460 372 476 360 471 b 340 422 344 447 340 435 l 340 418 l 264 418 l 264 422 b 314 522 267 469 283 503 b 386 542 333 535 358 542 b 479 515 424 542 456 532 b 517 435 504 497 517 469 b 499 379 517 415 511 396 z "},"c":{"ha":807,"x_min":0,"x_max":0,"o":"m 733 88 l 425 631 b 404 643 421 639 413 643 b 382 631 394 643 388 639 l 74 88 b 74 64 69 81 69 72 b 94 53 78 57 86 53 l 713 53 b 733 64 721 53 729 57 b 733 88 738 72 738 81 z m 446 122 l 361 122 l 361 192 l 446 192 l 446 122 z m 446 244 l 361 244 l 361 453 l 446 453 l 446 244 z "},"d":{"ha":792,"x_min":0,"x_max":0,"o":"m 353 632 b 69 347 196 632 69 504 b 353 63 69 190 196 63 b 528 122 418 63 479 85 l 479 175 b 353 133 443 149 400 133 b 140 347 235 133 140 229 b 353 561 140 465 235 561 b 565 354 468 561 561 469 l 467 354 l 594 213 l 722 354 l 636 354 b 353 632 632 508 507 632 z "},"e":{"ha":792,"x_min":0,"x_max":0,"o":"m 438 632 b 154 354 283 632 158 508 l 69 354 l 196 213 l 324 354 l 225 354 b 438 561 229 469 322 561 b 650 347 556 561 650 465 b 438 133 650 229 556 133 b 311 175 390 133 347 149 l 263 122 b 438 63 311 85 372 63 b 722 347 594 63 722 190 b 438 632 722 504 594 632 z "},"f":{"ha":833,"x_min":0,"x_max":0,"o":"m 594 458 l 618 458 l 618 389 l 764 514 l 618 639 l 618 556 l 594 556 b 329 376 465 556 393 461 b 143 236 272 301 222 236 l 69 236 l 69 139 l 143 139 b 407 318 271 139 343 235 b 594 458 464 393 514 458 z m 258 397 b 275 419 264 404 269 411 b 318 475 288 438 303 456 b 143 549 272 517 217 549 l 69 549 l 69 451 l 143 451 b 258 397 189 451 225 431 z m 618 229 l 594 229 b 472 290 546 229 508 254 b 463 276 469 285 465 281 b 413 213 447 256 431 235 b 594 132 460 167 517 132 l 618 132 l 618 49 l 764 174 l 618 299 l 618 229 z "},"g":{"ha":729,"x_min":0,"x_max":0,"o":"m 590 479 l 215 479 l 215 556 l 69 431 l 215 306 l 215 382 l 563 382 l 563 236 l 111 236 l 111 139 l 590 139 b 660 208 629 139 660 169 l 660 410 b 590 479 660 449 629 479 z "},"h":{"ha":833,"x_min":0,"x_max":0,"o":"m 250 236 l 250 417 l 333 417 l 201 556 l 69 417 l 153 417 l 153 208 b 222 139 153 169 183 139 l 493 139 l 404 236 l 250 236 z m 681 278 l 681 486 b 611 556 681 525 649 556 l 340 556 l 429 458 l 583 458 l 583 278 l 500 278 l 632 139 l 764 278 l 681 278 z "},"i":{"ha":625,"x_min":0,"x_max":0,"o":"m 521 382 l 104 382 b 69 347 85 382 69 367 b 104 313 69 328 85 313 l 521 313 b 556 347 539 313 556 328 b 521 382 556 367 539 382 z m 104 451 l 521 451 b 556 486 539 451 556 467 b 521 521 556 506 539 521 l 104 521 b 69 486 85 521 69 506 b 104 451 69 467 85 451 z m 521 243 l 104 243 b 69 208 85 243 69 228 b 104 174 69 189 85 174 l 521 174 b 556 208 539 174 556 189 b 521 243 556 228 539 243 z "},"Z":{"ha":722,"x_min":0,"x_max":0,"o":"m 361 639 b 69 347 200 639 69 508 b 361 56 69 186 200 56 b 653 347 522 56 653 186 b 361 639 653 508 522 639 z m 397 311 l 397 172 l 326 172 l 326 311 l 186 311 l 186 382 l 326 382 l 326 522 l 397 522 l 397 382 l 538 382 l 538 311 l 397 311 z "},"j":{"ha":833,"x_min":0,"x_max":0,"o":"m 313 382 l 104 382 b 69 347 86 382 69 367 b 104 313 69 328 86 313 l 313 313 b 347 347 332 313 347 328 b 313 382 347 367 332 382 z m 313 243 l 104 243 b 69 208 86 243 69 228 b 104 174 69 189 86 174 l 313 174 b 347 208 332 174 347 189 b 313 243 347 228 332 243 z m 743 382 l 625 382 l 625 500 b 590 521 625 519 610 521 b 556 500 572 521 556 519 l 556 382 l 442 382 b 421 347 422 382 421 367 b 442 313 421 328 422 313 l 556 313 l 556 194 b 590 174 556 175 572 174 b 625 194 610 174 625 175 l 625 313 l 743 313 b 764 347 763 313 764 328 b 743 382 764 367 763 382 z m 313 521 l 104 521 b 69 486 86 521 69 506 b 104 451 69 467 86 451 l 313 451 b 347 486 332 451 347 467 b 313 521 347 506 332 521 z "},"k":{"ha":556,"x_min":0,"x_max":0,"o":"m 188 556 l 125 556 b 69 500 88 556 69 538 l 69 438 b 125 382 69 399 88 382 l 188 382 b 243 438 226 382 243 399 l 243 500 b 188 556 243 538 226 556 z m 431 556 l 368 556 b 313 500 331 556 313 538 l 313 438 b 368 382 313 399 331 382 l 431 382 b 486 438 469 382 486 399 l 486 500 b 431 556 486 538 469 556 z m 188 313 l 125 313 b 69 257 88 313 69 294 l 69 194 b 125 139 69 156 88 139 l 188 139 b 243 194 226 139 243 156 l 243 257 b 188 313 243 294 226 313 z m 431 313 l 368 313 b 313 257 331 313 313 294 l 313 194 b 368 139 313 156 331 139 l 431 139 b 486 194 469 139 486 156 l 486 257 b 431 313 486 294 469 313 z "},"l":{"ha":625,"x_min":0,"x_max":0,"o":"m 217 317 l 411 317 l 411 379 l 217 379 l 217 317 z m 486 660 l 139 660 b 69 590 100 660 69 628 l 69 104 b 139 35 69 65 100 35 l 486 35 b 556 104 524 35 556 65 l 556 590 b 486 660 556 628 524 660 z m 486 104 l 139 104 l 139 590 l 486 590 l 486 104 z m 410 515 l 215 515 l 215 454 l 410 454 l 410 515 z m 410 242 l 215 242 l 215 182 l 410 182 l 410 242 z "},"m":{"ha":625,"x_min":0,"x_max":0,"o":"m 486 660 l 139 660 b 69 590 101 660 69 628 l 69 104 b 139 35 69 65 101 35 l 486 35 b 556 104 525 35 556 65 l 556 590 b 486 660 556 628 525 660 z m 486 104 l 139 104 l 139 590 l 486 590 l 486 104 z "},"n":{"ha":625,"x_min":0,"x_max":0,"o":"m 521 521 l 417 521 l 417 625 b 382 660 417 644 401 660 l 104 660 b 69 625 86 660 69 644 l 69 208 b 104 174 69 189 86 174 l 208 174 l 208 69 b 243 35 208 50 225 35 l 521 35 b 556 69 540 35 556 50 l 556 486 b 521 521 556 506 540 521 z m 139 243 l 139 590 l 347 590 l 347 521 l 243 521 b 208 486 224 521 208 506 l 208 243 l 139 243 z m 486 104 l 278 104 l 278 451 l 486 451 l 486 104 z "},"o":{"ha":694,"x_min":0,"x_max":0,"o":"m 0 521 l 0 174 b 69 104 0 135 32 104 l 625 104 b 694 174 664 104 694 135 l 694 521 b 625 590 694 558 664 590 l 69 590 b 0 521 32 590 0 558 z m 625 521 l 625 174 l 69 174 l 69 521 l 625 521 z "},"p":{"ha":833,"x_min":0,"x_max":0,"o":"m 665 463 l 593 658 b 560 675 589 672 574 681 l 88 503 b 72 468 74 499 67 482 l 147 261 l 147 372 b 236 463 147 422 186 463 l 360 463 l 510 567 l 596 463 l 665 463 z m 738 400 l 236 400 b 210 372 221 400 210 388 l 210 44 b 236 17 210 29 221 17 l 738 17 b 764 44 753 17 764 29 l 764 372 b 738 400 764 388 753 400 z m 700 88 l 283 88 l 283 147 l 347 296 l 443 176 l 533 269 l 650 311 l 700 199 l 700 88 z "},"q":{"ha":819,"x_min":0,"x_max":0,"o":"m 750 521 l 750 563 b 722 590 750 578 739 590 l 97 590 b 69 563 82 590 69 578 l 69 521 l 139 521 l 139 451 l 69 451 l 69 382 l 139 382 l 139 313 l 69 313 l 69 243 l 139 243 l 139 174 l 69 174 l 69 132 b 97 104 69 117 82 104 l 722 104 b 750 132 739 104 750 117 l 750 174 l 681 174 l 681 243 l 750 243 l 750 313 l 681 313 l 681 382 l 750 382 l 750 451 l 681 451 l 681 521 l 750 521 z m 333 243 l 333 451 l 507 347 l 333 243 z "},"r":{"ha":625,"x_min":0,"x_max":0,"o":"m 486 660 l 139 660 b 69 590 101 660 69 628 l 69 104 b 139 35 69 65 101 35 l 486 35 b 556 104 525 35 556 65 l 556 590 b 486 660 556 628 525 660 z m 410 329 b 400 329 401 317 397 322 b 351 415 407 349 407 407 l 351 235 b 292 167 351 201 332 179 b 196 196 251 154 206 167 b 249 274 185 225 208 260 b 310 275 271 282 293 282 l 310 531 l 351 531 b 410 329 351 488 469 421 z "},"s":{"ha":836,"x_min":0,"x_max":0,"o":"m 733 451 l 103 451 b 71 417 71 451 69 436 l 100 104 b 138 69 101 85 106 69 l 699 69 b 736 104 731 69 735 85 l 765 417 b 733 451 767 436 765 451 z m 710 528 b 668 556 706 543 688 556 l 431 556 b 371 581 413 556 385 567 l 351 600 b 292 625 338 614 310 625 l 178 625 b 139 590 158 625 142 610 l 129 500 l 717 500 l 710 528 z "},"t":{"ha":821,"x_min":0,"x_max":0,"o":"m 653 521 b 618 556 653 556 618 556 l 203 556 b 168 521 203 556 168 556 l 168 486 l 653 486 l 653 521 z m 549 625 l 272 625 b 238 590 272 625 238 625 l 583 590 b 549 625 583 625 549 625 z m 721 486 b 701 507 701 507 701 507 l 701 451 l 119 451 l 119 507 b 99 486 119 507 119 507 b 72 417 79 465 64 460 b 126 104 81 374 119 136 b 168 69 132 69 168 69 l 653 69 b 694 104 653 69 688 69 b 749 417 700 136 740 374 b 721 486 757 460 742 465 z m 549 299 b 514 264 549 299 549 264 l 307 264 b 272 299 272 264 272 299 l 272 368 l 321 368 l 321 313 l 500 313 l 500 368 l 549 368 l 549 299 z "},"u":{"ha":613,"x_min":0,"x_max":0,"o":"m 307 632 b 71 543 158 632 65 583 l 121 131 b 307 63 122 115 197 63 b 492 131 415 63 490 115 l 542 543 b 307 632 547 583 456 632 z m 307 483 b 121 536 197 483 121 522 b 307 589 121 550 197 589 b 492 536 415 589 492 550 b 307 483 492 522 415 483 z "},"v":{"ha":835,"x_min":0,"x_max":0,"o":"m 418 643 l 231 467 l 335 467 l 335 296 l 501 296 l 501 467 l 606 467 l 418 643 z m 742 242 l 632 317 l 563 317 l 681 225 l 558 225 b 550 221 554 225 551 224 l 521 143 l 314 143 l 285 221 b 276 225 283 224 281 225 l 154 225 l 272 317 l 204 317 l 93 242 b 71 192 76 232 67 210 l 90 85 b 135 53 96 67 115 53 l 701 53 b 744 85 721 53 740 67 l 764 192 b 742 242 768 210 758 232 z "},"w":{"ha":694,"x_min":0,"x_max":0,"o":"m 535 471 l 431 471 l 431 642 l 264 642 l 264 471 l 160 471 l 347 294 l 535 471 z m 671 242 l 560 315 l 492 315 l 610 225 l 488 225 b 479 221 483 225 481 224 l 450 143 l 243 143 l 214 221 b 206 225 213 224 210 225 l 83 225 l 201 315 l 133 315 l 22 242 b 0 192 6 232 -4 210 l 19 85 b 64 51 25 67 44 51 l 631 51 b 674 85 650 51 669 67 l 693 192 b 671 242 697 210 688 232 z "},"x":{"ha":765,"x_min":0,"x_max":0,"o":"m 685 315 l 575 576 b 524 607 567 593 543 607 l 453 607 l 467 467 l 560 467 l 383 319 l 206 467 l 300 467 l 314 607 l 242 607 b 190 576 222 607 199 593 l 82 315 b 71 250 72 299 68 268 l 94 121 b 136 86 99 103 117 86 l 629 86 b 671 121 649 86 668 103 l 694 250 b 685 315 697 268 693 299 z m 638 221 l 628 171 b 588 136 625 151 607 136 l 178 136 b 138 171 158 136 140 151 l 129 221 b 158 256 126 240 139 256 l 607 256 b 638 221 626 256 640 240 z "},"y":{"ha":833,"x_min":0,"x_max":0,"o":"m 597 447 b 569 444 588 447 578 446 b 392 574 546 519 475 574 b 207 393 290 574 207 493 b 210 367 207 385 208 375 b 194 368 204 367 200 368 b 69 244 125 368 69 313 b 194 122 69 178 125 122 l 597 122 b 764 285 689 122 764 194 b 597 447 764 375 689 447 z "},"z":{"ha":833,"x_min":0,"x_max":0,"o":"m 599 446 b 571 444 589 446 579 446 b 393 572 547 518 476 572 b 208 392 292 572 208 492 b 211 367 208 383 210 375 b 196 367 206 367 201 367 b 69 244 126 367 69 313 b 196 121 69 176 126 121 l 368 121 l 368 253 l 296 253 l 417 413 l 539 253 l 465 253 l 465 121 l 599 121 b 764 283 690 121 764 194 b 599 446 764 374 690 446 z "},"{":{"ha":486,"x_min":0,"x_max":0,"o":"m 406 365 l 108 549 b 69 526 86 564 69 553 l 69 168 b 108 146 69 142 86 131 l 406 329 b 417 347 406 329 417 336 b 406 365 417 357 406 365 z "},"|":{"ha":507,"x_min":0,"x_max":0,"o":"m 375 590 b 313 544 340 590 313 579 l 313 149 b 375 104 313 115 340 104 b 438 149 410 104 438 115 l 438 544 b 375 590 438 579 410 590 z m 132 590 b 69 544 97 590 69 579 l 69 149 b 132 104 69 115 97 104 b 194 149 167 104 194 115 l 194 544 b 132 590 194 579 167 590 z "},"}":{"ha":625,"x_min":0,"x_max":0,"o":"m 313 590 b 69 347 178 590 69 482 b 313 104 69 213 178 104 b 556 347 446 104 556 213 b 313 590 556 482 446 590 z "},"~":{"ha":556,"x_min":0,"x_max":0,"o":"m 435 556 l 122 556 b 69 510 88 556 69 544 l 69 183 b 122 139 69 150 88 139 l 435 139 b 486 183 468 139 486 150 l 486 510 b 435 556 486 544 468 556 z "},"ˇ":{"ha":694,"x_min":0,"x_max":0,"o":""},"©":{"ha":808,"x_min":0,"x_max":0,"o":"m 399 681 b 71 343 215 678 68 526 b 408 14 72 158 224 11 b 738 351 592 17 739 168 b 399 681 735 536 583 683 z m 407 83 b 140 343 261 82 143 199 b 400 610 139 489 254 608 b 667 350 546 613 665 496 b 407 83 668 206 553 86 z m 322 290 b 290 306 308 290 297 296 b 279 347 283 317 279 331 b 322 404 279 385 293 404 b 340 397 328 404 333 401 b 357 378 347 394 353 388 l 400 400 b 315 446 383 431 354 446 b 249 419 288 446 265 438 b 222 347 231 401 222 378 b 247 274 222 315 231 292 b 317 247 265 257 289 247 b 365 261 335 247 351 253 b 401 299 381 271 393 282 l 361 318 b 322 290 354 300 340 290 z m 507 290 b 475 306 492 290 482 296 b 464 347 467 317 464 331 b 507 404 464 385 478 404 b 525 397 513 404 518 401 b 542 378 532 394 538 388 l 585 400 b 500 446 568 431 539 446 b 433 419 474 446 450 438 b 407 347 415 401 407 378 b 432 274 407 315 415 292 b 501 247 450 257 472 247 b 550 261 519 247 535 253 b 586 299 565 271 576 282 l 546 318 b 507 290 538 300 525 290 z "},"™":{"ha":643,"x_min":0,"x_max":0,"o":"m 449 271 b 556 336 493 272 532 296 b 500 517 592 400 571 476 l 457 543 l 531 671 l 492 694 l 347 446 b 283 517 336 474 315 499 l 200 564 l 69 339 l 154 290 b 247 271 185 274 217 267 l 103 22 l 143 0 l 217 129 l 261 103 b 446 147 332 63 410 83 b 449 271 469 188 469 233 z m 481 481 b 514 360 528 454 539 404 b 392 328 488 315 439 301 l 347 353 b 349 357 349 354 349 356 l 436 507 l 481 481 z m 175 326 l 131 353 l 218 506 l 263 481 b 297 358 310 453 322 403 b 175 326 271 314 222 300 z m 282 139 l 238 165 l 325 314 b 326 318 325 315 326 317 l 371 292 b 404 169 418 265 431 214 b 282 139 379 125 329 111 z "},"Ä":{"ha":750,"x_min":0,"x_max":0,"o":"m 671 364 l 411 536 b 375 514 392 549 375 539 l 375 181 b 411 158 375 156 392 146 l 671 331 b 681 347 671 331 681 338 b 671 364 681 357 671 364 z m 356 364 l 106 536 b 69 514 85 549 69 539 l 69 181 b 106 158 69 156 85 146 l 356 331 b 365 347 356 331 365 338 b 356 364 365 357 356 364 z "},"Å":{"ha":750,"x_min":0,"x_max":0,"o":"m 69 347 b 79 331 69 338 79 331 l 339 158 b 375 181 358 146 375 156 l 375 514 b 339 536 375 539 358 549 l 79 364 b 69 347 79 364 69 357 z m 385 347 b 394 331 385 338 394 331 l 644 158 b 681 181 665 146 681 156 l 681 514 b 644 536 681 539 665 549 l 394 364 b 385 347 394 364 385 357 z "},"Ç":{"ha":556,"x_min":0,"x_max":0,"o":"m 190 347 b 199 332 190 339 199 332 l 451 174 b 486 194 471 161 486 171 l 486 501 b 451 522 486 525 471 535 l 199 363 b 190 347 199 363 190 357 z m 69 510 l 69 186 b 121 146 69 156 90 146 b 174 186 151 146 174 156 l 174 510 b 121 550 174 540 151 550 b 69 510 90 550 69 540 z "},"É":{"ha":556,"x_min":0,"x_max":0,"o":"m 356 363 l 103 521 b 69 501 85 533 69 525 l 69 193 b 103 174 69 169 85 161 l 356 332 b 364 347 356 332 364 338 b 356 363 364 356 356 363 z m 433 549 b 382 508 403 549 382 539 l 382 186 b 433 146 382 156 403 146 b 486 186 464 146 486 156 l 486 508 b 433 549 486 539 464 549 z "},"Ñ":{"ha":694,"x_min":0,"x_max":0,"o":"m 433 610 l 488 556 l 389 456 l 458 386 l 557 486 l 611 431 l 625 625 l 433 610 z m 236 308 l 139 208 l 85 264 l 69 69 l 261 85 l 207 139 l 306 239 l 236 308 z "},"Ö":{"ha":708,"x_min":0,"x_max":0,"o":"m 639 560 l 569 632 l 468 529 l 413 586 l 397 388 l 594 403 l 539 458 l 639 560 z m 171 236 l 69 133 l 140 63 l 242 164 l 297 108 l 313 307 l 115 292 l 171 236 z "},"Ü":{"ha":763,"x_min":0,"x_max":0,"o":"m 693 228 l 693 488 b 644 515 693 518 671 531 l 88 201 b 96 172 61 185 65 172 l 638 172 b 693 228 668 172 693 197 z "},"á":{"ha":771,"x_min":0,"x_max":0,"o":"m 192 511 b 129 83 153 472 -18 231 b 558 144 276 -64 519 106 b 444 399 597 183 546 297 b 192 511 343 500 231 551 z m 513 179 b 326 281 501 167 413 194 b 225 467 240 367 214 456 b 411 365 236 478 325 451 b 513 179 497 279 524 190 z m 518 453 b 543 463 526 453 536 456 l 608 529 b 608 578 622 542 622 564 b 560 578 594 592 574 592 l 493 511 b 493 463 479 499 479 476 b 518 453 500 456 508 453 z m 393 539 b 410 533 399 535 404 533 b 440 551 422 533 433 540 l 478 618 b 464 665 488 635 481 657 b 417 653 447 675 426 669 l 379 586 b 393 539 371 569 376 547 z m 697 433 b 650 447 688 450 667 457 l 582 410 b 569 363 565 400 560 379 b 600 344 575 351 588 344 b 617 349 606 344 611 346 l 683 386 b 697 433 700 396 706 417 z "},"à":{"ha":753,"x_min":0,"x_max":0,"o":"m 672 643 b 624 643 658 657 638 657 l 81 100 b 81 51 67 86 67 65 b 106 42 88 44 96 42 b 129 51 114 42 122 44 l 672 594 b 672 643 686 607 686 629 z m 522 375 b 576 244 571 310 586 253 b 446 299 568 235 511 250 l 253 106 b 622 210 399 43 588 176 b 557 410 654 242 625 325 l 522 375 z m 331 418 b 289 532 292 476 281 524 b 401 490 297 540 344 529 l 438 526 b 254 576 358 583 285 607 b 143 231 222 544 100 372 l 331 418 z "},"â":{"ha":646,"x_min":0,"x_max":0,"o":"m 333 83 l 333 217 l 576 217 l 576 478 l 333 478 l 333 611 l 69 347 l 333 83 z "},"ä":{"ha":667,"x_min":0,"x_max":0,"o":"m 597 357 l 464 357 l 464 600 l 203 600 l 203 357 l 69 357 l 333 93 l 597 357 z "},"ã":{"ha":667,"x_min":0,"x_max":0,"o":"m 597 338 l 333 600 l 69 338 l 203 338 l 203 93 l 464 93 l 464 338 l 597 338 z "},"å":{"ha":646,"x_min":0,"x_max":0,"o":"m 313 611 l 313 478 l 69 478 l 69 215 l 313 215 l 313 83 l 576 347 l 313 611 z "},"ç":{"ha":646,"x_min":0,"x_max":0,"o":"m 333 118 l 333 251 l 576 251 l 576 443 l 333 443 l 333 576 l 69 347 l 333 118 z "},"é":{"ha":597,"x_min":0,"x_max":0,"o":"m 528 357 l 394 357 l 394 600 l 201 600 l 201 357 l 69 357 l 299 93 l 528 357 z "},"è":{"ha":597,"x_min":0,"x_max":0,"o":"m 528 338 l 299 600 l 69 338 l 201 338 l 201 93 l 394 93 l 394 338 l 528 338 z "},"ê":{"ha":646,"x_min":0,"x_max":0,"o":"m 314 576 l 313 443 l 69 443 l 69 250 l 314 250 l 313 118 l 576 347 l 314 576 z "},"ë":{"ha":778,"x_min":0,"x_max":0,"o":"m 708 347 b 389 667 708 524 565 667 b 69 347 213 667 69 524 b 389 28 69 171 213 28 b 708 347 565 28 708 171 z m 139 347 b 389 597 139 485 250 597 b 639 347 526 597 639 485 b 389 97 639 210 526 97 b 139 347 250 97 139 210 z m 522 285 l 522 410 l 381 410 l 381 488 l 247 347 l 381 207 l 381 285 l 522 285 z "},"í":{"ha":778,"x_min":0,"x_max":0,"o":"m 389 667 b 69 347 213 667 69 524 b 389 28 69 171 213 28 b 708 347 565 28 708 171 b 389 667 708 524 565 667 z m 389 97 b 139 347 251 97 139 210 b 389 597 139 486 251 597 b 639 347 526 597 639 486 b 389 97 639 210 526 97 z m 451 482 l 326 482 l 326 339 l 249 339 l 389 207 l 529 339 l 451 339 l 451 482 z "},"ì":{"ha":778,"x_min":0,"x_max":0,"o":"m 389 28 b 708 347 565 28 708 171 b 389 667 708 524 565 667 b 69 347 213 667 69 524 b 389 28 69 171 213 28 z m 389 597 b 639 347 526 597 639 485 b 389 97 639 210 526 97 b 139 347 250 97 139 210 b 389 597 139 485 250 597 z m 326 214 l 451 214 l 451 356 l 529 356 l 389 488 l 247 356 l 326 356 l 326 214 z "},"î":{"ha":778,"x_min":0,"x_max":0,"o":"m 69 347 b 389 28 69 171 213 28 b 708 347 565 28 708 171 b 389 667 708 524 565 667 b 69 347 213 667 69 524 z m 639 347 b 389 97 639 210 526 97 b 139 347 250 97 139 210 b 389 597 139 485 250 597 b 639 347 526 597 639 485 z m 254 410 l 254 285 l 397 285 l 397 207 l 529 347 l 397 488 l 397 410 l 254 410 z "},"ï":{"ha":765,"x_min":0,"x_max":0,"o":"m 688 336 l 408 615 b 357 615 394 631 371 631 l 78 336 b 90 310 64 322 69 310 l 149 310 l 149 96 b 176 68 149 81 149 68 l 313 68 l 313 282 l 454 282 l 454 68 l 596 68 b 617 96 617 68 617 81 l 617 310 l 675 310 b 688 336 696 310 701 322 z "},"ñ":{"ha":389,"x_min":0,"x_max":0,"o":"m 285 660 l 97 660 b 69 625 78 660 69 644 l 69 35 l 194 160 l 319 35 l 319 625 b 285 660 319 644 304 660 z "},"ó":{"ha":764,"x_min":0,"x_max":0,"o":"m 307 268 l 167 324 l 167 276 l 307 221 l 307 268 z m 307 413 l 167 468 l 167 421 l 307 365 l 307 413 z m 681 654 b 647 657 671 660 658 661 l 382 551 l 118 657 b 85 654 107 661 94 660 b 69 625 76 647 69 636 l 69 181 b 92 149 69 167 79 154 l 369 38 b 376 35 369 38 375 36 b 382 35 378 35 381 35 b 389 35 385 35 388 35 b 396 38 390 36 396 38 l 674 149 b 694 181 686 154 694 167 l 694 625 b 681 654 694 636 689 647 z m 347 106 l 125 194 l 125 583 l 347 494 l 347 106 z m 639 194 l 417 106 l 417 494 l 639 583 l 639 194 z m 599 324 l 458 268 l 458 221 l 599 276 l 599 324 z m 599 468 l 458 413 l 458 365 l 599 421 l 599 468 z "},"ò":{"ha":694,"x_min":0,"x_max":0,"o":"m 556 625 l 276 625 b 208 556 239 625 208 594 l 208 278 b 278 208 208 239 239 208 l 556 208 b 625 278 593 208 625 239 l 625 556 b 556 625 625 593 593 625 z m 556 278 l 278 278 l 278 556 l 556 556 l 556 278 z m 139 347 l 69 347 l 69 139 b 139 69 69 100 100 69 l 347 69 l 347 139 l 139 139 l 139 347 z "},"ô":{"ha":688,"x_min":0,"x_max":0,"o":"m 606 157 l 475 289 b 506 400 494 321 506 360 b 285 621 506 518 403 621 b 69 407 165 621 69 525 b 290 185 69 288 172 185 b 399 214 331 185 367 196 l 531 82 b 578 82 544 69 565 69 l 610 115 b 606 157 624 128 618 144 z m 136 407 b 285 556 136 489 203 556 b 440 400 367 556 440 482 b 290 251 440 318 374 251 b 136 407 208 251 136 325 z "},"ö":{"ha":778,"x_min":0,"x_max":0,"o":"m 146 424 b 69 347 103 424 69 389 b 146 271 69 306 103 271 b 222 347 188 271 222 306 b 146 424 222 389 188 424 z m 389 424 b 313 347 346 424 313 389 b 389 271 313 306 346 271 b 465 347 431 271 465 306 b 389 424 465 389 431 424 z m 632 424 b 556 347 589 424 556 389 b 632 271 556 306 589 271 b 708 347 674 271 708 306 b 632 424 708 389 674 424 z "},"®":{"ha":764,"x_min":0,"x_max":0,"o":"m 660 556 l 347 556 l 347 382 l 694 382 l 694 521 b 660 556 694 540 678 556 z m 69 174 b 97 139 69 154 78 139 l 278 139 l 278 313 l 69 313 l 69 174 z m 347 139 l 660 139 b 694 174 678 139 694 154 l 694 313 l 347 313 l 347 139 z m 69 521 l 69 382 l 278 382 l 278 556 l 97 556 b 69 521 78 556 69 540 z "},"˛":{"ha":694,"x_min":0,"x_max":0,"o":""}}}
